HIERARCHY
ROOT Hips
{
	OFFSET -0.001795 -0.223333 0.028219
	CHANNELS 6 Xposition Yposition Zposition Zrotation Yrotation Xrotation 
	JOINT LeftUpLeg
	{
		OFFSET 0.069520 -0.091406 -0.006815
		CHANNELS 3 Zrotation Yrotation Xrotation
		JOINT LeftLeg
		{
			OFFSET 0.034277 -0.375199 -0.004496
			CHANNELS 3 Zrotation Yrotation Xrotation
			JOINT LeftFoot
			{
				OFFSET -0.013596 -0.397961 -0.043693
				CHANNELS 3 Zrotation Yrotation Xrotation
				JOINT LeftToe
				{
					OFFSET 0.026358 -0.055791 0.119288
					CHANNELS 3 Zrotation Yrotation Xrotation
					End Site
					{
						OFFSET 0.000000 0.000000 0.000000
					}
				}
			}
		}
	}
	JOINT RightUpLeg
	{
		OFFSET -0.067670 -0.090522 -0.004320
		CHANNELS 3 Zrotation Yrotation Xrotation
		JOINT RightLeg
		{
			OFFSET -0.038290 -0.382569 -0.008850
			CHANNELS 3 Zrotation Yrotation Xrotation
			JOINT RightFoot
			{
				OFFSET 0.015774 -0.398415 -0.042312
				CHANNELS 3 Zrotation Yrotation Xrotation
				JOINT RightToe
				{
					OFFSET -0.025372 -0.048144 0.123348
					CHANNELS 3 Zrotation Yrotation Xrotation
					End Site
					{
						OFFSET 0.000000 0.000000 0.000000
					}
				}
			}
		}
	}
	JOINT Spine
	{
		OFFSET -0.002533 0.108963 -0.026696
		CHANNELS 3 Zrotation Yrotation Xrotation
		JOINT Spine1
		{
			OFFSET 0.005487 0.135180 0.001092
			CHANNELS 3 Zrotation Yrotation Xrotation
			JOINT Spine2
			{
				OFFSET 0.001457 0.052922 0.025425
				CHANNELS 3 Zrotation Yrotation Xrotation
				JOINT Neck
				{
					OFFSET -0.002778 0.213870 -0.042857
					CHANNELS 3 Zrotation Yrotation Xrotation
					JOINT Head
					{
						OFFSET 0.005152 0.064970 0.051349
						CHANNELS 3 Zrotation Yrotation Xrotation
						End Site
						{
							OFFSET 0.000000 0.000000 0.000000
						}
					}
				}
				JOINT LeftShoulder
				{
					OFFSET 0.078845 0.121749 -0.034090
					CHANNELS 3 Zrotation Yrotation Xrotation
					JOINT LeftArm
					{
						OFFSET 0.090977 0.030469 -0.008868
						CHANNELS 3 Zrotation Yrotation Xrotation
						JOINT LeftForeArm
						{
							OFFSET 0.259612 -0.012772 -0.027456
							CHANNELS 3 Zrotation Yrotation Xrotation
							JOINT LeftHand
							{
								OFFSET 0.249234 0.008986 -0.001171
								CHANNELS 3 Zrotation Yrotation Xrotation
								End Site
								{
									OFFSET 0.000000 0.000000 0.000000
								}
							}
						}
					}
				}
				JOINT RightShoulder
				{
					OFFSET -0.081759 0.118833 -0.038615
					CHANNELS 3 Zrotation Yrotation Xrotation
					JOINT RightArm
					{
						OFFSET -0.096012 0.032551 -0.009143
						CHANNELS 3 Zrotation Yrotation Xrotation
						JOINT RightForeArm
						{
							OFFSET -0.253742 -0.013329 -0.021401
							CHANNELS 3 Zrotation Yrotation Xrotation
							JOINT RightHand
							{
								OFFSET -0.255298 0.007772 -0.005559
								CHANNELS 3 Zrotation Yrotation Xrotation
								End Site
								{
									OFFSET 0.000000 0.000000 0.000000
								}
							}
						}
					}
				}
			}
		}
	}
}
MOTION
Frames: 10
Frame Time: 0.050000
-0.269404 0.846216 0.259388 15.913095 55.163108 9.463227 -5.376412 -2.829188 -17.326766 -1.892994 -7.073712 34.051581 7.618375 -8.422204 -19.302663 0.000000 0.000000 0.000000 -10.043294 -3.811260 -18.739094 2.992142 -1.225609 5.627305 -157.260286 -9.743356 139.363724 0.000000 0.000000 0.000000 13.008118 -4.081217 13.645556 -1.687845 -2.413867 10.431210 -0.135054 22.965745 -7.437633 5.550405 0.630796 -12.996949 0.000000 0.000000 0.000000 -31.741922 -13.428356 -16.848076 -13.414022 19.940547 -0.161178 -12.876782 -49.435722 5.684198 0.000000 0.000000 0.000000 36.633739 13.123281 28.206391 8.938989 15.292589 -2.187263 -12.558277 44.193956 -4.992259 0.000000 0.000000 0.000000 
-0.270911 0.863151 0.257976 15.242102 54.060927 9.642985 -5.131964 -2.090638 -14.781160 0.031960 -5.202632 27.422026 4.952233 -10.782822 -15.473757 0.000000 0.000000 0.000000 -9.736394 -3.168122 -16.920793 3.031334 -0.810623 0.198535 -149.896365 -8.750399 142.687908 0.000000 0.000000 0.000000 13.106801 -3.494181 11.603876 -1.613544 -2.361923 10.270655 -0.117772 20.371822 -6.440442 4.817777 1.587480 -14.997781 0.000000 0.000000 0.000000 -32.651460 -15.236145 -15.047489 -14.168582 16.911961 -0.033958 -8.176212 -57.809891 4.461545 0.000000 0.000000 0.000000 36.388456 12.627271 26.592097 12.889486 13.329069 -2.383684 -13.510414 54.632566 -6.114408 0.000000 0.000000 0.000000 
-0.272490 0.883255 0.256889 13.939727 53.130284 8.916944 -4.787236 -1.390370 -11.887310 1.850240 -3.612352 20.983766 0.709480 -12.213075 -9.288051 0.000000 0.000000 0.000000 -8.533636 -2.153800 -13.925070 1.997572 -0.569061 -6.230975 -139.636026 -9.092294 147.354724 0.000000 0.000000 0.000000 12.734703 -3.116150 10.654273 -1.128488 -2.316943 9.500268 -0.791431 18.949389 -6.386344 5.587833 0.901881 -14.223747 0.000000 0.000000 0.000000 -32.950894 -18.699539 -12.499521 -15.197651 14.475886 0.136461 -5.702000 -68.529815 3.834651 0.000000 0.000000 0.000000 37.154994 11.604079 25.720624 16.341497 10.056063 -2.821479 -12.944022 63.996804 -6.541445 0.000000 0.000000 0.000000 
-0.274277 0.901604 0.256077 12.919671 52.132198 8.988723 -4.254595 -1.109316 -10.661688 2.298327 -2.505952 16.532087 -3.474855 -11.622818 -2.513444 0.000000 0.000000 0.000000 -8.068698 -1.634639 -11.613322 2.319424 -1.010960 -12.249749 -126.676212 -11.968627 151.333111 0.000000 0.000000 0.000000 12.310651 -2.634076 9.149399 -0.750031 -2.063012 8.155318 -0.561890 16.451488 -4.696119 5.085551 1.722393 -16.401357 0.000000 0.000000 0.000000 -33.328335 -20.309710 -10.259375 -16.083187 9.591420 0.390455 -2.174059 -76.380594 1.865320 0.000000 0.000000 0.000000 36.756830 10.690944 23.945888 20.197955 7.971183 -3.394492 -6.297305 72.169960 -1.507219 0.000000 0.000000 0.000000 
-0.276249 0.916023 0.255855 11.427784 51.183488 8.287115 -3.475506 -0.773538 -8.898922 2.799109 -1.635368 12.163866 -6.290071 -10.577317 2.386398 0.000000 0.000000 0.000000 -6.784250 -1.016903 -8.893840 2.020738 -1.724048 -18.045614 -115.942425 -16.328323 152.898166 0.000000 0.000000 0.000000 11.516497 -2.134184 7.770147 -0.885142 -1.993504 8.253233 -0.649452 14.696965 -4.963540 5.249993 1.288506 -15.614902 0.000000 0.000000 0.000000 -32.520074 -22.545491 -7.368964 -16.896652 6.391578 0.597256 10.741750 -81.498518 -9.570223 0.000000 0.000000 0.000000 37.048954 9.884738 22.593888 22.419670 5.927298 -3.841941 11.666483 78.985061 13.980338 0.000000 0.000000 0.000000 
-0.278384 0.925153 0.255986 9.590776 50.047905 7.406672 -2.673735 -0.596673 -7.777642 3.563089 -1.173353 9.006321 -7.516377 -9.240287 5.202890 0.000000 0.000000 0.000000 -5.383467 -0.570754 -6.575968 2.439722 -2.667894 -23.272787 -107.251641 -20.693220 152.060871 0.000000 0.000000 0.000000 11.208756 -1.868018 6.825318 -1.234101 -1.690840 7.985322 -0.817282 12.618909 -4.518537 5.277028 1.315978 -16.365988 0.000000 0.000000 0.000000 -33.778458 -24.743389 -4.926562 -15.792312 3.532538 0.773938 22.056745 -82.295732 -18.790189 0.000000 0.000000 0.000000 38.035365 9.250589 21.584316 23.531290 5.776375 -4.053187 39.233173 82.228425 39.960834 0.000000 0.000000 0.000000 
-0.280190 0.929897 0.256162 7.419982 48.171751 6.118807 -1.653321 -0.483192 -6.793909 4.207921 -0.912160 6.755425 -7.341195 -7.543217 6.296286 0.000000 0.000000 0.000000 -3.605202 -0.201606 -4.944957 3.046065 -3.431947 -27.115072 -100.996369 -24.298743 149.414255 0.000000 0.000000 0.000000 10.695839 -1.558961 5.812663 -1.997529 -1.529864 9.139302 -1.042540 11.967445 -5.442299 5.760399 1.072347 -17.163382 0.000000 0.000000 0.000000 -34.201907 -27.035012 -2.437193 -15.138784 1.718756 0.886839 23.932135 -81.871767 -20.016833 0.000000 0.000000 0.000000 39.059691 8.899699 21.020901 24.227840 5.409818 -4.202582 76.246572 82.182934 74.943375 0.000000 0.000000 0.000000 
-0.281438 0.931746 0.255947 5.627152 47.017675 5.123587 -1.011949 -0.372976 -5.639173 5.306928 -0.701656 4.212465 -7.098167 -6.645154 6.665551 0.000000 0.000000 0.000000 -2.270180 -0.026582 -3.750365 3.887180 -4.001586 -29.943549 -96.527282 -26.580941 147.089612 0.000000 0.000000 0.000000 10.449395 -1.379284 5.089184 -2.700803 -1.187910 9.460811 -1.105297 10.693430 -5.207774 6.070563 1.213311 -19.158998 0.000000 0.000000 0.000000 -34.938710 -29.103083 0.053837 -14.976138 0.283292 0.909160 24.737576 -80.764124 -20.034558 0.000000 0.000000 0.000000 39.698828 9.610658 21.127656 24.956854 5.715691 -4.238341 97.415148 82.556732 96.746553 0.000000 0.000000 0.000000 
-0.282081 0.932024 0.255315 4.314285 45.480296 4.240886 -0.362333 -0.290709 -4.441550 5.668538 -0.527433 2.263252 -6.430152 -5.498837 6.626280 0.000000 0.000000 0.000000 -1.301892 0.049575 -2.733737 4.852716 -4.337310 -32.029797 -93.572065 -28.227745 144.503347 0.000000 0.000000 0.000000 9.710080 -1.135881 4.423759 -3.150549 -1.082640 10.352184 -1.302587 10.278878 -5.355952 6.165883 1.329706 -20.605540 0.000000 0.000000 0.000000 -36.072969 -30.229361 1.566570 -14.757004 0.056863 0.834508 14.623731 -81.015813 -10.901997 0.000000 0.000000 0.000000 39.825257 10.107781 20.998321 25.579879 5.966469 -4.223381 106.774214 81.663159 105.794183 0.000000 0.000000 0.000000 
-0.282523 0.932336 0.254410 3.185424 44.677106 3.476007 0.070210 -0.241179 -3.497337 6.313480 -0.430898 0.642316 -6.122433 -4.853958 6.719152 0.000000 0.000000 0.000000 -0.720378 0.060779 -2.030558 5.913398 -4.513273 -33.362012 -90.769345 -29.330693 142.727951 0.000000 0.000000 0.000000 9.430487 -1.023858 4.023018 -3.760107 -0.782176 10.618997 -1.847545 9.675914 -5.025549 7.106746 1.140406 -22.407707 0.000000 0.000000 0.000000 -36.719904 -31.298208 2.899418 -15.490014 -0.002121 0.805086 6.244090 -83.015347 -3.853188 0.000000 0.000000 0.000000 40.510440 11.003463 21.736423 25.802056 6.692828 -4.175890 112.531565 82.458382 112.593445 0.000000 0.000000 0.000000 
